# xmcd
#
# Track frame offsets:
#	182
#	19700
#	39507
#	55875
#	68137
#	84395
#	94307
#	107620
#	117727
#	130702
#	142182
#	161205
#	171730
#
# Disc length: 2495 seconds
#
# Revision: 0
# Processed by: cddbd v1.5.2PL0 Copyright (c) Steve Scherf et al.
# Submitted via: audiograbber 1.83.01
#
DISCID=bd09bd0d
DTITLE=Marius Müller-Westernhagen - Lass uns Leben - 13 Balladen 1974-1985
DYEAR=1985
DGENRE=Rock
TTITLE0=Lass uns leben
TTITLE1=Wir waren noch Kinder
TTITLE2=Hier in der Kneipe fühl' ich mich frei
TTITLE3=Bar bezahlt
TTITLE4=Mutter
TTITLE5=Was ist los mit mir
TTITLE6=Ich bin ein Mann
TTITLE7=Gute Nacht, Herrmann
TTITLE8=Ich liebe Dich
TTITLE9=Mary
TTITLE10=Hass' mich oder lieb' mich
TTITLE11=Geiler is' schon
TTITLE12=Johnny W.
EXTD=
EXTT0=
EXTT1=
EXTT2=
EXTT3=
EXTT4=
EXTT5=
EXTT6=
EXTT7=
EXTT8=
EXTT9=
EXTT10=
EXTT11=
EXTT12=
PLAYORDER=
